<svg style="position: absolute; width: 0; height: 0; overflow: hidden;" aria-hidden="true" version="1.1" xmlns="http://www.w3.org/2000/svg" xmlns:xlink="http://www.w3.org/1999/xlink">
    <style>
        .default-palette, .palette0 {color: currentColor;
            --color0: #ffc531;
            --color1: #f2f4f7;
            --color2: #101828;
            --color3: #e44848;
            --color4: #6c717b;
        }
    </style>
    <defs>
        <symbol id="grey_map" viewBox="0 0 20 20" fill="none">
            <path fill="var(--color4, #6c717b)" clip-rule="evenodd" d="M19.7712 0.141c0.0716 0.0587 0.1293 0.1325 0.1688 0.2162 0.0396 0.0836 0.0601 0.175 0.06 0.2676v17.5c-1e-4 0.1444-0.0502 0.2844-0.1418 0.396-0.0916 0.1117-0.2191 0.1882-0.3607 0.2165l-6.25 1.25c-0.0809 0.0161-0.1641 0.0161-0.245 0l-6.1275-1.225-6.1275 1.225c-0.0906 0.0181-0.1842 0.0159-0.2738-65e-4-0.0897-0.0224-0.1733-0.0644-0.2448-0.123-0.0715-0.0585-0.1291-0.1323-0.1687-0.2158C0.0206 19.5585 1e-4 19.4672 0 19.3748v-17.5c1e-4-0.1445 0.0502-0.2844 0.1418-0.3961 0.0916-0.1116 0.2191-0.1881 0.3607-0.2164l6.25-1.25c0.0809-0.0162 0.1641-0.0162 0.245 0l6.1275 1.225 6.1275-1.225c0.0906-0.0183 0.1841-0.0162 0.2738 61e-4s0.1734 0.0641 0.2449 0.1226zM12.5 2.3873l-5-1v16.225l5 1zM13.75 18.6123l5-1V1.3873l-5 1zM6.25 17.6123V1.3873l-5 1v16.225z" fill-rule="evenodd" />
            <defs>
                <clipPath id="clip0_12071_602">
                    <rect fill="#fff" width="20" height="20" />
                </clipPath>
            </defs>
        </symbol>
        <symbol id="Property1Pressed" viewBox="0 0 16 16" fill="none">
            <path fill="var(--color0, #ffc531)" d="M7.5578 0.8382c0.1876-0.3556 0.6968-0.3556 0.8844 0l1.8883 3.5789c0.0723 0.1371 0.2042 0.2329 0.3569 0.2593l3.9873 0.6899c0.3961 0.0685 0.5535 0.5529 0.2733 0.8412l-2.8203 2.9017c-0.108 0.1112-0.1584 0.2662-0.1363 0.4197l0.576 4.0052c0.0572 0.3979-0.3548 0.6973-0.7155 0.5199l-3.6313-1.7855c-0.1391-0.0684-0.3021-0.0684-0.4412 0L4.1482 14.054c-0.3608 0.1774-0.7728-0.122-0.7156-0.5199l0.576-4.0052c0.0221-0.1535-0.0283-0.3085-0.1363-0.4197L1.052 6.2075C0.7718 5.9192 0.9292 5.4348 1.3254 5.3663l3.9872-0.6899C5.4653 4.65 5.5972 4.5542 5.6695 4.4171z" />
            <defs>
                <clipPath id="clip0_12140_332">
                    <rect fill="#fff" width="16" height="16" />
                </clipPath>
            </defs>
        </symbol>
        <symbol id="Property1Default" viewBox="0 0 16 16" fill="none">
            <path fill="var(--color1, #f2f4f7)" d="M7.5578 0.8382c0.1876-0.3556 0.6968-0.3556 0.8844 0l1.8883 3.5789c0.0723 0.1371 0.2042 0.2329 0.3569 0.2593l3.9873 0.6899c0.3961 0.0685 0.5535 0.5529 0.2733 0.8412l-2.8203 2.9017c-0.108 0.1112-0.1584 0.2662-0.1363 0.4197l0.576 4.0052c0.0572 0.3979-0.3548 0.6973-0.7155 0.5199l-3.6313-1.7855c-0.1391-0.0684-0.3021-0.0684-0.4412 0L4.1482 14.054c-0.3608 0.1774-0.7728-0.122-0.7156-0.5199l0.576-4.0052c0.0221-0.1535-0.0283-0.3085-0.1363-0.4197L1.052 6.2075C0.7718 5.9192 0.9292 5.4348 1.3254 5.3663l3.9872-0.6899C5.4653 4.65 5.5972 4.5542 5.6695 4.4171z" />
        </symbol>
        <symbol id="heart" viewBox="0 0 24 21" fill="none">
            <path fill="var(--color2, #101828)" d="M12 7.854 10.659 5.1705c-0.333-0.6645-0.9105-1.62-1.728-2.3925C8.127 2.0175 7.164 1.5 6 1.5c-2.514 0-4.5 1.989-4.5 4.38 0 1.8165 0.831 3.099 2.802 5.055 0.5055 0.501 1.0815 1.0425 1.719 1.6395 1.662 1.56 3.729 3.501 5.979 6.096 2.25-2.595 4.317-4.536 5.979-6.096 0.6375-0.597 1.215-1.14 1.719-1.6395C21.669 8.979 22.5 7.6965 22.5 5.88c0-2.391-1.986-4.38-4.5-4.38-1.1655 0-2.127 0.5175-2.931 1.278-0.8175 0.7725-1.395 1.728-1.728 2.3925zM12.588 20.292c-0.0722 0.0856-0.1623 0.1543-0.2638 0.2015-0.1016 0.0472-0.2122 0.0716-0.3242 0.0716s-0.2226-0.0244-0.3242-0.0716c-0.1015-0.0472-0.1916-0.1159-0.2638-0.2015-2.4015-2.853-4.575-4.893-6.3645-6.5715C1.95 10.812 0 8.9835 0 5.88 0 2.6325 2.685 0 6 0c2.4 0 4.0785 1.575 5.106 3.012C11.496 3.5595 11.793 4.086 12 4.5c0.2597-0.518 0.5586-1.0154 0.894-1.488C13.9215 1.5735 15.6 0 18 0c3.315 0 6 2.6325 6 5.88 0 3.1035-1.95 4.932-5.0475 7.8405-1.7895 1.68-3.963 3.7215-6.3645 6.5715z" />
        </symbol>
        <symbol id="red_heart" viewBox="0 0 24 21" fill="none">
            <path fill="var(--color3, #e44848)" d="M12 7.854 10.659 5.1705c-0.333-0.6645-0.9105-1.62-1.728-2.3925C8.127 2.0175 7.164 1.5 6 1.5c-2.514 0-4.5 1.989-4.5 4.38 0 1.8165 0.831 3.099 2.802 5.055 0.5055 0.501 1.0815 1.0425 1.719 1.6395 1.662 1.56 3.729 3.501 5.979 6.096 2.25-2.595 4.317-4.536 5.979-6.096 0.6375-0.597 1.215-1.14 1.719-1.6395C21.669 8.979 22.5 7.6965 22.5 5.88c0-2.391-1.986-4.38-4.5-4.38-1.1655 0-2.127 0.5175-2.931 1.278-0.8175 0.7725-1.395 1.728-1.728 2.3925zM12.588 20.292c-0.0722 0.0856-0.1623 0.1543-0.2638 0.2015-0.1016 0.0472-0.2122 0.0716-0.3242 0.0716s-0.2226-0.0244-0.3242-0.0716c-0.1015-0.0472-0.1916-0.1159-0.2638-0.2015-2.4015-2.853-4.575-4.893-6.3645-6.5715C1.95 10.812 0 8.9835 0 5.88 0 2.6325 2.685 0 6 0c2.4 0 4.0785 1.575 5.106 3.012C11.496 3.5595 11.793 4.086 12 4.5c0.2597-0.518 0.5586-1.0154 0.894-1.488C13.9215 1.5735 15.6 0 18 0c3.315 0 6 2.6325 6 5.88 0 3.1035-1.95 4.932-5.0475 7.8405-1.7895 1.68-3.963 3.7215-6.3645 6.5715z" />
        </symbol>
        <symbol id="cup-hot" viewBox="0 0 32 32" fill="none">
            <g fill="var(--color2, #101828)" clip-path="url(#clip0_12138_439)">
                <path clip-rule="evenodd" d="M1 12c-0.1496 1e-4-0.2973 0.0337-0.4322 0.0984-0.135 0.0648-0.2536 0.159-0.3473 0.2757-0.0936 0.1166-0.1599 0.2529-0.1939 0.3986-0.034 0.1457-0.0349 0.2972-26e-4 0.4433l3.304 14.868c0.2466 1.1105 0.8645 2.1037 1.7518 2.8157C5.967 31.6116 7.0705 31.9998 8.208 32h11.584c1.1376-2e-4 2.241-0.3884 3.1282-1.1003 0.8873-0.712 1.5052-1.7052 1.7518-2.8157l0.262-1.18c1.5298 0.2861 3.111-0.0334 4.4097-0.8911s2.2133-2.1865 2.5507-3.7059 0.0712-3.1104-0.7423-4.4372c-0.8136-1.3268-2.1109-2.2855-3.6181-2.6738l0.442-1.98c0.0323-0.1461 0.0314-0.2976-26e-4-0.4433s-0.1003-0.282-0.1939-0.3986c-0.0937-0.1167-0.2123-0.2109-0.3472-0.2757C27.2973 12.0337 27.1496 12.0001 27 12zM26 25c-0.2117 1e-4-0.423-0.0166-0.632-0.05l1.734-7.796c0.925 0.2679 1.7224 0.8604 2.2458 1.6687 0.5235 0.8083 0.7379 1.7783 0.604 2.7319-0.134 0.9537-0.6073 1.8271-1.3332 2.4599C27.8927 24.6474 26.963 24.9973 26 25zM5.28 27.65 2.246 14h23.508L22.72 27.65c-0.1479 0.6664-0.5186 1.2624-1.0509 1.6896-0.5324 0.4273-1.1945 0.6602-1.8771 0.6604H8.208c-0.6826-2e-4-1.3447-0.2331-1.8771-0.6604-0.5323-0.4272-0.903-1.0232-1.0509-1.6896z" fill-rule="evenodd" />
                <path d="M8.8 1.6l-6e-3 8e-3-0.028 0.038c-0.1455 0.2002-0.2817 0.4071-0.408 0.62C8.2507 2.4366 8.1564 2.6152 8.076 2.8 8.024 2.92 8.008 2.984 8.002 3.006v8e-3C8.0251 3.1908 8.0872 3.3602 8.184 3.51 8.334 3.776 8.54 4.054 8.8 4.4l0.02 0.024C9.056 4.74 9.34 5.118 9.56 5.51 9.784 5.91 10 6.42 10 7c0 0.376-0.13 0.736-0.238 0.988-0.1156 0.2681-0.2506 0.5275-0.404 0.776-0.1569 0.2623-0.3258 0.5172-0.506 0.764l-0.036 0.05-0.01 0.016-4e-3 4e-3C8.6431 9.8104 8.4064 9.9511 8.1438 9.989 7.8813 10.0268 7.6144 9.9589 7.402 9.8 7.1896 9.6411 7.0489 9.4044 7.0111 9.1418 6.9732 8.8793 7.0411 8.6124 7.2 8.4l6e-3-8e-3 0.028-0.038c0.1455-0.2003 0.2817-0.4071 0.408-0.62C7.7493 7.5634 7.8436 7.3849 7.924 7.2 7.976 7.08 7.992 7.016 7.998 6.994 7.9767 6.8146 7.9152 6.6423 7.818 6.49 7.6324 6.1797 7.4259 5.8824 7.2 5.6L7.18 5.576C6.9098 5.2306 6.6626 4.8678 6.44 4.49 6.1676 4.0395 6.016 3.5263 6 3 6 2.624 6.13 2.264 6.238 2.012 6.356 1.736 6.506 1.464 6.642 1.236 6.8009 0.975 6.9697 0.7201 7.148 0.472l0.05-0.07c0.1589-0.2124 0.3956-0.3531 0.6582-0.391C8.1187-0.0268 8.3856 0.0411 8.598 0.2s0.3531 0.3956 0.391 0.6582C9.0268 1.1207 8.9589 1.3876 8.8 1.6zM14.8 1.6l-6e-3 8e-3-0.028 0.038c-0.1455 0.2002-0.2817 0.4071-0.408 0.62-0.1073 0.1706-0.2016 0.3491-0.282 0.534-0.052 0.12-0.068 0.184-0.074 0.206v8e-3c0.0231 0.1768 0.0852 0.3462 0.182 0.496 0.15 0.266 0.356 0.544 0.616 0.89l0.02 0.024c0.236 0.316 0.52 0.694 0.74 1.086C15.784 5.91 16 6.42 16 7c0 0.376-0.13 0.736-0.238 0.988-0.1156 0.2681-0.2506 0.5275-0.404 0.776-0.1569 0.2623-0.3257 0.5172-0.506 0.764l-0.036 0.05-0.01 0.016-4e-3 4e-3c-0.1589 0.2124-0.3956 0.3531-0.6582 0.391-0.2625 0.0378-0.5294-0.0301-0.7418-0.189-0.2124-0.1589-0.3531-0.3956-0.3909-0.6582C12.9732 8.8793 13.0411 8.6124 13.2 8.4l6e-3-8e-3 0.028-0.038c0.1455-0.2003 0.2817-0.4071 0.408-0.62 0.1073-0.1706 0.2016-0.3492 0.282-0.534 0.052-0.12 0.068-0.184 0.074-0.206-0.0213-0.1794-0.0828-0.3517-0.18-0.504-0.1857-0.3103-0.3921-0.6076-0.618-0.89l-0.02-0.024c-0.2702-0.3454-0.5174-0.7082-0.74-1.086C12.1676 4.0395 12.016 3.5263 12 3c0-0.376 0.13-0.736 0.238-0.988 0.118-0.276 0.268-0.548 0.404-0.776 0.1589-0.261 0.3277-0.5159 0.506-0.764l0.05-0.07c0.1589-0.2124 0.3956-0.3531 0.6582-0.391 0.2625-0.0378 0.5294 0.0301 0.7418 0.189s0.3531 0.3956 0.3909 0.6582C15.0268 1.1207 14.9589 1.3876 14.8 1.6zM20.8 1.6l-6e-3 8e-3-0.028 0.038c-0.1455 0.2002-0.2817 0.4071-0.408 0.62-0.1073 0.1706-0.2016 0.3491-0.282 0.534-0.052 0.12-0.068 0.184-0.074 0.206v8e-3c0.0231 0.1768 0.0852 0.3462 0.182 0.496 0.15 0.266 0.356 0.544 0.616 0.89l0.02 0.024c0.236 0.316 0.52 0.694 0.74 1.086C21.784 5.91 22 6.42 22 7c0 0.376-0.13 0.736-0.238 0.988-0.1156 0.2681-0.2506 0.5275-0.404 0.776-0.1563 0.2622-0.3244 0.5172-0.504 0.764l-0.038 0.05-0.01 0.016-4e-3 4e-3c-0.1589 0.2124-0.3956 0.3531-0.6582 0.391-0.2625 0.0378-0.5294-0.0301-0.7418-0.189-0.2124-0.1589-0.3531-0.3956-0.3909-0.6582C18.9732 8.8793 19.0411 8.6124 19.2 8.4l6e-3-8e-3 0.028-0.038c0.1455-0.2003 0.2817-0.4071 0.408-0.62 0.1073-0.1706 0.2016-0.3492 0.282-0.534 0.052-0.12 0.068-0.184 0.074-0.206-0.0213-0.1794-0.0828-0.3517-0.18-0.504-0.1856-0.3103-0.3921-0.6076-0.618-0.89l-0.02-0.024c-0.2702-0.3454-0.5174-0.7082-0.74-1.086C18.1676 4.0395 18.016 3.5263 18 3c0-0.376 0.13-0.736 0.238-0.988 0.118-0.276 0.268-0.548 0.404-0.776 0.1589-0.261 0.3277-0.5159 0.506-0.764l0.05-0.07c0.1589-0.2124 0.3956-0.3531 0.6582-0.391 0.2625-0.0378 0.5294 0.0301 0.7418 0.189s0.3531 0.3956 0.3909 0.6582C21.0268 1.1207 20.9589 1.3876 20.8 1.6z" />
            </g>
            <defs>
                <clipPath id="clip0_12138_439">
                    <rect fill="#fff" width="32" height="32" />
                </clipPath>
            </defs>
        </symbol>
        <symbol id="bi_grid-3x3-gap" viewBox="0 0 32 32" fill="none">
            <path fill="var(--color2, #101828)" d="M8 4v4H4V4zM10 28v-4c0-0.5304-0.2107-1.0391-0.5858-1.4142C9.0391 22.2107 8.5304 22 8 22H4c-0.5304 0-1.0391 0.2107-1.4142 0.5858C2.2107 22.9609 2 23.4696 2 24v4c0 0.5304 0.2107 1.0391 0.5858 1.4142C2.9609 29.7893 3.4696 30 4 30h4c0.5304 0 1.0391-0.2107 1.4142-0.5858C9.7893 29.0391 10 28.5304 10 28zM10 18v-4c0-0.5304-0.2107-1.0391-0.5858-1.4142C9.0391 12.2107 8.5304 12 8 12H4c-0.5304 0-1.0391 0.2107-1.4142 0.5858C2.2107 12.9609 2 13.4696 2 14v4c0 0.5304 0.2107 1.0391 0.5858 1.4142C2.9609 19.7893 3.4696 20 4 20h4c0.5304 0 1.0391-0.2107 1.4142-0.5858C9.7893 19.0391 10 18.5304 10 18zM10 8V4c0-0.5304-0.2107-1.0391-0.5858-1.4142C9.0391 2.2107 8.5304 2 8 2H4C3.4696 2 2.9609 2.2107 2.5858 2.5858 2.2107 2.9609 2 3.4696 2 4v4c0 0.5304 0.2107 1.0391 0.5858 1.4142C2.9609 9.7893 3.4696 10 4 10h4c0.5304 0 1.0391-0.2107 1.4142-0.5858C9.7893 9.0391 10 8.5304 10 8zM20 28v-4c0-0.5304-0.2107-1.0391-0.5858-1.4142S18.5304 22 18 22h-4c-0.5304 0-1.0391 0.2107-1.4142 0.5858S12 23.4696 12 24v4c0 0.5304 0.2107 1.0391 0.5858 1.4142S13.4696 30 14 30h4c0.5304 0 1.0391-0.2107 1.4142-0.5858S20 28.5304 20 28zM20 18v-4c0-0.5304-0.2107-1.0391-0.5858-1.4142S18.5304 12 18 12h-4c-0.5304 0-1.0391 0.2107-1.4142 0.5858S12 13.4696 12 14v4c0 0.5304 0.2107 1.0391 0.5858 1.4142S13.4696 20 14 20h4c0.5304 0 1.0391-0.2107 1.4142-0.5858S20 18.5304 20 18zM20 8V4c0-0.5304-0.2107-1.0391-0.5858-1.4142C19.0391 2.2107 18.5304 2 18 2h-4c-0.5304 0-1.0391 0.2107-1.4142 0.5858C12.2107 2.9609 12 3.4696 12 4v4c0 0.5304 0.2107 1.0391 0.5858 1.4142C12.9609 9.7893 13.4696 10 14 10h4c0.5304 0 1.0391-0.2107 1.4142-0.5858C19.7893 9.0391 20 8.5304 20 8zM18 4v4h-4V4zM28 4v4h-4V4zM8 14v4H4v-4zM18 14v4h-4v-4zM28 14h-4v4h4zM8 24v4H4v-4zM18 24v4h-4v-4zM28 24v4h-4v-4zM24 2c-0.5304 0-1.0391 0.2107-1.4142 0.5858C22.2107 2.9609 22 3.4696 22 4v4c0 0.5304 0.2107 1.0391 0.5858 1.4142C22.9609 9.7893 23.4696 10 24 10h4c0.5304 0 1.0391-0.2107 1.4142-0.5858C29.7893 9.0391 30 8.5304 30 8V4c0-0.5304-0.2107-1.0391-0.5858-1.4142C29.0391 2.2107 28.5304 2 28 2zM22 14c0-0.5304 0.2107-1.0391 0.5858-1.4142S23.4696 12 24 12h4c0.5304 0 1.0391 0.2107 1.4142 0.5858S30 13.4696 30 14v4c0 0.5304-0.2107 1.0391-0.5858 1.4142S28.5304 20 28 20h-4c-0.5304 0-1.0391-0.2107-1.4142-0.5858S22 18.5304 22 18zM24 22c-0.5304 0-1.0391 0.2107-1.4142 0.5858S22 23.4696 22 24v4c0 0.5304 0.2107 1.0391 0.5858 1.4142S23.4696 30 24 30h4c0.5304 0 1.0391-0.2107 1.4142-0.5858S30 28.5304 30 28v-4c0-0.5304-0.2107-1.0391-0.5858-1.4142S28.5304 22 28 22z" />
        </symbol>
        <symbol id="diagram" viewBox="0 0 32 32" fill="none">
            <path fill="var(--color2, #101828)" clip-rule="evenodd" d="M12 7c0-0.7957 0.3161-1.5587 0.8787-2.1213C13.4413 4.3161 14.2044 4 15 4h2c0.7956 0 1.5587 0.3161 2.1213 0.8787C19.6839 5.4413 20 6.2044 20 7v2c0 0.7957-0.3161 1.5587-0.8787 2.1213S17.7956 12 17 12v2h11c0.2652 0 0.5196 0.1054 0.7071 0.2929S29 14.7348 29 15v2c0 0.2652-0.1054 0.5196-0.2929 0.7071S28.2652 18 28 18s-0.5196-0.1054-0.7071-0.2929S27 17.2652 27 17v-1H17v1c0 0.2652-0.1054 0.5196-0.2929 0.7071S16.2652 18 16 18s-0.5196-0.1054-0.7071-0.2929S15 17.2652 15 17v-1H5v1c0 0.2652-0.1054 0.5196-0.2929 0.7071C4.5196 17.8946 4.2652 18 4 18s-0.5196-0.1054-0.7071-0.2929S3 17.2652 3 17v-2c0-0.2652 0.1054-0.5196 0.2929-0.7071S3.7348 14 4 14h11v-2c-0.7956 0-1.5587-0.3161-2.1213-0.8787S12 9.7957 12 9zM17 10c0.2652 0 0.5196-0.1054 0.7071-0.2929S18 9.2652 18 9V7c0-0.2652-0.1054-0.5196-0.2929-0.7071S17.2652 6 17 6h-2c-0.2652 0-0.5196 0.1054-0.7071 0.2929C14.1054 6.4804 14 6.7348 14 7v2c0 0.2652 0.1054 0.5196 0.2929 0.7071S14.7348 10 15 10zM0 23c0-0.7956 0.3161-1.5587 0.8787-2.1213C1.4413 20.3161 2.2043 20 3 20h2c0.7957 0 1.5587 0.3161 2.1213 0.8787C7.6839 21.4413 8 22.2044 8 23v2c0 0.7956-0.3161 1.5587-0.8787 2.1213C6.5587 27.6839 5.7957 28 5 28H3c-0.7957 0-1.5587-0.3161-2.1213-0.8787C0.3161 26.5587 0 25.7956 0 25zM3 22c-0.2652 0-0.5196 0.1054-0.7071 0.2929S2 22.7348 2 23v2c0 0.2652 0.1054 0.5196 0.2929 0.7071S2.7348 26 3 26h2c0.2652 0 0.5196-0.1054 0.7071-0.2929S6 25.2652 6 25v-2c0-0.2652-0.1054-0.5196-0.2929-0.7071C5.5196 22.1054 5.2652 22 5 22zM12 23c0-0.7956 0.3161-1.5587 0.8787-2.1213S14.2044 20 15 20h2c0.7956 0 1.5587 0.3161 2.1213 0.8787S20 22.2044 20 23v2c0 0.7956-0.3161 1.5587-0.8787 2.1213S17.7956 28 17 28h-2c-0.7956 0-1.5587-0.3161-2.1213-0.8787S12 25.7956 12 25zM15 22c-0.2652 0-0.5196 0.1054-0.7071 0.2929S14 22.7348 14 23v2c0 0.2652 0.1054 0.5196 0.2929 0.7071S14.7348 26 15 26h2c0.2652 0 0.5196-0.1054 0.7071-0.2929S18 25.2652 18 25v-2c0-0.2652-0.1054-0.5196-0.2929-0.7071S17.2652 22 17 22zM24 23c0-0.7956 0.3161-1.5587 0.8787-2.1213S26.2044 20 27 20h2c0.7956 0 1.5587 0.3161 2.1213 0.8787S32 22.2044 32 23v2c0 0.7956-0.3161 1.5587-0.8787 2.1213S29.7956 28 29 28h-2c-0.7956 0-1.5587-0.3161-2.1213-0.8787S24 25.7956 24 25zM27 22c-0.2652 0-0.5196 0.1054-0.7071 0.2929S26 22.7348 26 23v2c0 0.2652 0.1054 0.5196 0.2929 0.7071S26.7348 26 27 26h2c0.2652 0 0.5196-0.1054 0.7071-0.2929S30 25.2652 30 25v-2c0-0.2652-0.1054-0.5196-0.2929-0.7071S29.2652 22 29 22z" fill-rule="evenodd" />
        </symbol>
        <symbol id="bi_grid" viewBox="0 0 32 32" fill="none">
            <path fill="var(--color2, #101828)" d="M2 5c0-0.7957 0.3161-1.5587 0.8787-2.1213C3.4413 2.3161 4.2044 2 5 2h6c0.7956 0 1.5587 0.3161 2.1213 0.8787C13.6839 3.4413 14 4.2044 14 5v6c0 0.7956-0.3161 1.5587-0.8787 2.1213S11.7956 14 11 14H5c-0.7957 0-1.5587-0.3161-2.1213-0.8787C2.3161 12.5587 2 11.7956 2 11zM5 4C4.7348 4 4.4804 4.1054 4.2929 4.2929 4.1054 4.4804 4 4.7348 4 5v6c0 0.2652 0.1054 0.5196 0.2929 0.7071C4.4804 11.8946 4.7348 12 5 12h6c0.2652 0 0.5196-0.1054 0.7071-0.2929S12 11.2652 12 11V5c0-0.2652-0.1054-0.5196-0.2929-0.7071S11.2652 4 11 4zM18 5c0-0.7957 0.3161-1.5587 0.8787-2.1213C19.4413 2.3161 20.2044 2 21 2h6c0.7956 0 1.5587 0.3161 2.1213 0.8787C29.6839 3.4413 30 4.2044 30 5v6c0 0.7956-0.3161 1.5587-0.8787 2.1213S27.7956 14 27 14h-6c-0.7956 0-1.5587-0.3161-2.1213-0.8787S18 11.7956 18 11zM21 4c-0.2652 0-0.5196 0.1054-0.7071 0.2929C20.1054 4.4804 20 4.7348 20 5v6c0 0.2652 0.1054 0.5196 0.2929 0.7071S20.7348 12 21 12h6c0.2652 0 0.5196-0.1054 0.7071-0.2929S28 11.2652 28 11V5c0-0.2652-0.1054-0.5196-0.2929-0.7071S27.2652 4 27 4zM2 21c0-0.7956 0.3161-1.5587 0.8787-2.1213C3.4413 18.3161 4.2044 18 5 18h6c0.7956 0 1.5587 0.3161 2.1213 0.8787S14 20.2044 14 21v6c0 0.7956-0.3161 1.5587-0.8787 2.1213S11.7956 30 11 30H5c-0.7957 0-1.5587-0.3161-2.1213-0.8787C2.3161 28.5587 2 27.7956 2 27zM5 20c-0.2652 0-0.5196 0.1054-0.7071 0.2929S4 20.7348 4 21v6c0 0.2652 0.1054 0.5196 0.2929 0.7071C4.4804 27.8946 4.7348 28 5 28h6c0.2652 0 0.5196-0.1054 0.7071-0.2929S12 27.2652 12 27v-6c0-0.2652-0.1054-0.5196-0.2929-0.7071S11.2652 20 11 20zM18 21c0-0.7956 0.3161-1.5587 0.8787-2.1213S20.2044 18 21 18h6c0.7956 0 1.5587 0.3161 2.1213 0.8787S30 20.2044 30 21v6c0 0.7956-0.3161 1.5587-0.8787 2.1213S27.7956 30 27 30h-6c-0.7956 0-1.5587-0.3161-2.1213-0.8787S18 27.7956 18 27zM21 20c-0.2652 0-0.5196 0.1054-0.7071 0.2929S20 20.7348 20 21v6c0 0.2652 0.1054 0.5196 0.2929 0.7071S20.7348 28 21 28h6c0.2652 0 0.5196-0.1054 0.7071-0.2929S28 27.2652 28 27v-6c0-0.2652-0.1054-0.5196-0.2929-0.7071S27.2652 20 27 20z" />
        </symbol>
        <symbol id="hugeicons_gas-stove" viewBox="0 0 32 32" stroke-width="2.4" stroke="var(--color2, #101828)" stroke-linecap="round" stroke-linejoin="round" fill="none">
            <path d="M8 25.3334h5.3333M24 25.3454v-0.012M2.6667 8c0-4.4133 0.92-5.3333 5.3333-5.3333l16 0c4.4133 0 5.3333 0.92 5.3333 5.3333v16c0 4.4134-0.92 5.3334-5.3333 5.3334H8c-4.4133 0-5.3333-0.92-5.3333-5.3334z" />
            <path d="M16 18.6667c2.9455 0 5.3333-2.3878 5.3333-5.3334C21.3333 10.3878 18.9455 8 16 8s-5.3333 2.3878-5.3333 5.3333c0 2.9456 2.3878 5.3334 5.3333 5.3334z" />
            <path d="M20.6667 13.3334h2M16 18v2M11.3333 13.3334h-2M16 8.6667v-2" />
        </symbol>
        <symbol id="wind" viewBox="0 0 32 32" fill="none">
            <path fill="var(--color2, #101828)" d="M25 4c-1.3261 0-2.5979 0.5268-3.5355 1.4645C20.5268 6.4022 20 7.6739 20 9c0 0.2652-0.1054 0.5196-0.2929 0.7071C19.5196 9.8947 19.2652 10 19 10s-0.5196-0.1053-0.7071-0.2929C18.1054 9.5196 18 9.2652 18 9c0-1.3845 0.4105-2.7378 1.1797-3.889 0.7692-1.1511 1.8624-2.0483 3.1415-2.5781 1.2791-0.5299 2.6866-0.6685 4.0444-0.3984 1.3579 0.2701 2.6052 0.9368 3.5841 1.9158 0.979 0.9789 1.6457 2.2262 1.9158 3.5841 0.2701 1.3578 0.1315 2.7653-0.3983 4.0444-0.5299 1.2791-1.4271 2.3723-2.5782 3.1415C27.7378 15.5895 26.3845 16 25 16H1c-0.2652 0-0.5196-0.1054-0.7071-0.2929C0.1054 15.5196 0 15.2652 0 15s0.1054-0.5196 0.2929-0.7071C0.4804 14.1054 0.7348 14 1 14h24c1.3261 0 2.5979-0.5268 3.5355-1.4645C29.4732 11.5979 30 10.3261 30 9c0-1.3261-0.5268-2.5979-1.4645-3.5355C27.5979 4.5268 26.3261 4 25 4zM11 6c-0.5304 0-1.0391 0.2107-1.4142 0.5858C9.2107 6.9609 9 7.4696 9 8 9 8.2652 8.8946 8.5196 8.7071 8.7071 8.5196 8.8947 8.2652 9 8 9S7.4804 8.8947 7.2929 8.7071C7.1054 8.5196 7 8.2652 7 8 7 7.2089 7.2346 6.4355 7.6741 5.7777 8.1137 5.1199 8.7384 4.6072 9.4693 4.3045c0.7309-0.3028 1.5351-0.382 2.3111-0.2276 0.7759 0.1543 1.4886 0.5353 2.048 1.0947 0.5594 0.5594 0.9404 1.2721 1.0947 2.048 0.1544 0.776 0.0752 1.5802-0.2276 2.3111-0.3027 0.7309-0.8154 1.3557-1.4732 1.7952S11.7911 12 11 12H1c-0.2652 0-0.5196-0.1054-0.7071-0.2929C0.1054 11.5196 0 11.2652 0 11s0.1054-0.5196 0.2929-0.7071C0.4804 10.1054 0.7348 10 1 10h10c0.5304 0 1.0391-0.2107 1.4142-0.5858C12.7893 9.0391 13 8.5304 13 8c0-0.5304-0.2107-1.0391-0.5858-1.4142C12.0391 6.2107 11.5304 6 11 6zM0 19c0-0.2652 0.1054-0.5196 0.2929-0.7071C0.4804 18.1054 0.7348 18 1 18h20.084c1.1867 0 2.3467 0.3519 3.3334 1.0112s1.7558 1.5963 2.2099 2.6927 0.5729 2.3028 0.3414 3.4666c-0.2315 1.1639-0.8029 2.233-1.6421 3.0721-0.8391 0.8392-1.9082 1.4106-3.0721 1.6421-1.1638 0.2315-2.3702 0.1127-3.4666-0.3414s-2.0334-1.2232-2.6927-2.2099S15.084 25.1867 15.084 24c0-0.2652 0.1054-0.5196 0.2929-0.7071S15.8188 23 16.084 23s0.5196 0.1054 0.7071 0.2929S17.084 23.7348 17.084 24c0 0.7911 0.2346 1.5645 0.6741 2.2223s1.0643 1.1705 1.7952 1.4732c0.7309 0.3028 1.5351 0.382 2.3111 0.2276 0.7759-0.1543 1.4886-0.5353 2.048-1.0947s0.9404-1.2721 1.0947-2.048c0.1544-0.776 0.0752-1.5802-0.2276-2.3111-0.3027-0.7309-0.8154-1.3556-1.4732-1.7952C22.6485 20.2346 21.8751 20 21.084 20H1c-0.2652 0-0.5196-0.1054-0.7071-0.2929C0.1054 19.5196 0 19.2652 0 19z" />
        </symbol>
        <symbol id="bi_grid-1x2" viewBox="0 0 32 32" fill="none">
            <path fill="var(--color2, #101828)" d="M12 2H2v28h10zM30 2H20v10h10zM30 20v10H20V20zM0 2c0-0.5304 0.2107-1.0391 0.5858-1.4142C0.9609 0.2107 1.4696 0 2 0h10c0.5304 0 1.0391 0.2107 1.4142 0.5858C13.7893 0.9609 14 1.4696 14 2v28c0 0.5304-0.2107 1.0391-0.5858 1.4142S12.5304 32 12 32H2c-0.5304 0-1.0391-0.2107-1.4142-0.5858C0.2107 31.0391 0 30.5304 0 30zM18 2c0-0.5304 0.2107-1.0391 0.5858-1.4142C18.9609 0.2107 19.4696 0 20 0h10c0.5304 0 1.0391 0.2107 1.4142 0.5858C31.7893 0.9609 32 1.4696 32 2v10c0 0.5304-0.2107 1.0391-0.5858 1.4142S30.5304 14 30 14H20c-0.5304 0-1.0391-0.2107-1.4142-0.5858S18 12.5304 18 12zM20 18c-0.5304 0-1.0391 0.2107-1.4142 0.5858S18 19.4696 18 20v10c0 0.5304 0.2107 1.0391 0.5858 1.4142S19.4696 32 20 32h10c0.5304 0 1.0391-0.2107 1.4142-0.5858S32 30.5304 32 30V20c0-0.5304-0.2107-1.0391-0.5858-1.4142S30.5304 18 30 18z" />
        </symbol>
        <symbol id="lucide_microwave" viewBox="0 0 32 32" stroke-width="2" stroke="var(--color2, #101828)" stroke-linecap="round" stroke-linejoin="round" fill="none">
            <path d="M26.6667 5.3333l-21.3334 0C3.8606 5.3333 2.6667 6.5272 2.6667 8l0 14.6666c0 1.4728 1.1939 2.6667 2.6666 2.6667h21.3334c1.4727 0 2.6666-1.1939 2.6666-2.6667V8c0-1.4728-1.1939-2.6667-2.6666-2.6667z" />
            <path d="M17.3333 10.6666h-8C8.597 10.6666 8 11.2636 8 12v6.6666C8 19.403 8.597 20 9.3333 20h8c0.7364 0 1.3334-0.597 1.3334-1.3334V12c0-0.7364-0.597-1.3334-1.3334-1.3334z" />
            <path d="M24 10.6666V20M8 25.3333V28M24 25.3333V28" />
        </symbol>
        <symbol id="tv" viewBox="0 0 32 32" fill="none">
            <path fill="var(--color2, #101828)" d="M0 8c0 0 0-4 4-4h24c0 0 4 0 4 4v12c0 0 0 4-4 4h-8c0 1.3333 0.1667 2.3333 0.5 3H22c0.2652 0 0.5196 0.1054 0.7071 0.2929S23 27.7348 23 28s-0.1054 0.5196-0.2929 0.7071S22.2652 29 22 29H10c-0.2652 0-0.5196-0.1054-0.7071-0.2929S9 28.2652 9 28s0.1054-0.5196 0.2929-0.7071S9.7348 27 10 27h1.5c0.3333-0.6667 0.5-1.6667 0.5-3H4c0 0-4 0-4-4zM2.796 6.29C2.5764 6.4431 2.4012 6.6515 2.288 6.894 2.1195 7.247 2.0217 7.6295 2 8.02V20c0 0.65 0.156 1.004 0.29 1.204 0.14 0.208 0.3413 0.3773 0.604 0.508 0.3377 0.1616 0.7026 0.2586 1.076 0.286L4.02 22H28c0.65 0 1.004-0.156 1.204-0.29 0.2196-0.1531 0.3948-0.3614 0.508-0.604 0.1616-0.3377 0.2586-0.7026 0.286-1.076L30 19.98V8c0-0.65-0.156-1.004-0.29-1.204-0.1531-0.2196-0.3614-0.3948-0.604-0.508C28.753 6.1195 28.3705 6.0217 27.98 6H4C3.35 6 2.996 6.156 2.796 6.29z" />
        </symbol>
        <symbol id="ph_shower" viewBox="0 0 32 32" fill="none">
            <path fill="var(--color2, #101828)" d="M8 29.5c0 0.2967-0.088 0.5867-0.2528 0.8334-0.1648 0.2466-0.3991 0.4389-0.6732 0.5524-0.2741 0.1135-0.5757 0.1433-0.8666 0.0854-0.291-0.0579-0.5583-0.2008-0.7681-0.4105-0.2097-0.2098-0.3526-0.4771-0.4105-0.7681-0.0579-0.2909-0.0281-0.5925 0.0854-0.8666 0.1135-0.2741 0.3058-0.5084 0.5525-0.6732C5.9133 28.088 6.2033 28 6.5 28c0.3978 0 0.7794 0.158 1.0607 0.4393C7.842 28.7206 8 29.1022 8 29.5zM10.5 24c-0.2967 0-0.5867 0.088-0.8333 0.2528-0.2467 0.1648-0.439 0.3991-0.5525 0.6732-0.1136 0.2741-0.1433 0.5757-0.0854 0.8666 0.0579 0.291 0.2008 0.5583 0.4105 0.7681 0.2098 0.2097 0.4771 0.3526 0.7681 0.4105 0.2909 0.0579 0.5925 0.0281 0.8666-0.0854s0.5084-0.3058 0.6732-0.5524C11.912 26.0867 12 25.7967 12 25.5c0-0.3978-0.158-0.7794-0.4393-1.0607S10.8978 24 10.5 24zM2.5 24c-0.2967 0-0.5867 0.088-0.8333 0.2528-0.2467 0.1648-0.439 0.3991-0.5525 0.6732-0.1136 0.2741-0.1433 0.5757-0.0854 0.8666 0.0579 0.291 0.2008 0.5583 0.4105 0.7681 0.2098 0.2097 0.4771 0.3526 0.7681 0.4105 0.2909 0.0579 0.5925 0.0281 0.8666-0.0854 0.2741-0.1135 0.5084-0.3058 0.6732-0.5524C3.912 26.0867 4 25.7967 4 25.5c0-0.3978-0.158-0.7794-0.4393-1.0607C3.2794 24.158 2.8978 24 2.5 24zM6.5 20c-0.2967 0-0.5867 0.088-0.8334 0.2528-0.2466 0.1648-0.4389 0.3991-0.5524 0.6732-0.1136 0.2741-0.1433 0.5757-0.0854 0.8666 0.0579 0.291 0.2008 0.5583 0.4105 0.7681 0.2098 0.2097 0.4771 0.3526 0.7681 0.4105 0.2909 0.0579 0.5925 0.0281 0.8666-0.0854 0.2741-0.1135 0.5084-0.3058 0.6732-0.5524C7.912 22.0867 8 21.7967 8 21.5c0-0.3978-0.158-0.7794-0.4393-1.0607C7.2794 20.158 6.8978 20 6.5 20zM32 5c0 0.2652-0.1054 0.5196-0.2929 0.7071S31.2652 6 31 6h-3.5863l-3.4812 3.4825-2.7075 15.8487c-0.0609 0.3621-0.2204 0.7005-0.4608 0.9779-0.2405 0.2775-0.5527 0.4834-0.9025 0.5952-0.3497 0.1118-0.7235 0.1252-1.0803 0.0387-0.3569-0.0866-0.683-0.2697-0.9426-0.5293l-12.25-12.25c-0.26-0.2598-0.4434-0.5863-0.5299-0.9436-0.0866-0.3573-0.073-0.7315 0.0393-1.0816 0.1122-0.35 0.3188-0.6624 0.597-0.9027 0.2781-0.2403 0.6172-0.3993 0.9798-0.4595l15.8425-2.7088 3.775-3.775c0.0929-0.0928 0.2033-0.1664 0.3246-0.2166C26.7385 4.0257 26.8686 3.9999 27 4h4c0.2652 0 0.5196 0.1054 0.7071 0.2929C31.8946 4.4804 32 4.7348 32 5zM21.7763 10.2238 7 12.75 19.25 25z" />
        </symbol>
        <symbol id="map" viewBox="0 0 20 20" fill="none">
            <path fill="var(--color2, #101828)" clip-rule="evenodd" d="M19.7712 0.141c0.0716 0.0587 0.1293 0.1325 0.1688 0.2162 0.0396 0.0836 0.0601 0.175 0.06 0.2676v17.5c-1e-4 0.1444-0.0502 0.2844-0.1418 0.396-0.0916 0.1117-0.2191 0.1882-0.3607 0.2165l-6.25 1.25c-0.0809 0.0161-0.1641 0.0161-0.245 0l-6.1275-1.225-6.1275 1.225c-0.0906 0.0181-0.1842 0.0159-0.2738-65e-4-0.0897-0.0224-0.1733-0.0644-0.2448-0.123-0.0715-0.0585-0.1291-0.1323-0.1687-0.2158C0.0206 19.5585 1e-4 19.4672 0 19.3748v-17.5c1e-4-0.1445 0.0502-0.2844 0.1418-0.3961 0.0916-0.1116 0.2191-0.1881 0.3607-0.2164l6.25-1.25c0.0809-0.0162 0.1641-0.0162 0.245 0l6.1275 1.225 6.1275-1.225c0.0906-0.0183 0.1841-0.0162 0.2738 61e-4s0.1734 0.0641 0.2449 0.1226zM12.5 2.3873l-5-1v16.225l5 1zM13.75 18.6123l5-1V1.3873l-5 1zM6.25 17.6123V1.3873l-5 1v16.225z" fill-rule="evenodd" />
        </symbol>
        <symbol id="radio" viewBox="0 0 19 18" fill="none">
            <path fill="var(--color2, #101828)" d="M8.75 1.875c0-0.1658 0.0658-0.3247 0.1831-0.4419C9.0503 1.3159 9.2092 1.25 9.375 1.25h8.75c0.1658 0 0.3247 0.0658 0.4419 0.1831C18.6842 1.5503 18.75 1.7092 18.75 1.875v1.25c0 0.1658-0.0658 0.3247-0.1831 0.4419C18.4497 3.6842 18.2908 3.75 18.125 3.75h-8.75c-0.1658 0-0.3247-0.0659-0.4419-0.1831C8.8159 3.4497 8.75 3.2908 8.75 3.125zM0 13.75c0-0.9946 0.3951-1.9484 1.0984-2.6517C1.8016 10.3951 2.7554 10 3.75 10s1.9484 0.3951 2.6517 1.0983C7.1049 11.8016 7.5 12.7554 7.5 13.75s-0.3951 1.9484-1.0983 2.6517C5.6984 17.1049 4.7446 17.5 3.75 17.5s-1.9484-0.3951-2.6516-1.0983C0.3951 15.6984 0 14.7446 0 13.75zM8.75 11.875c0-0.1658 0.0658-0.3247 0.1831-0.4419C9.0503 11.3158 9.2092 11.25 9.375 11.25h8.75c0.1658 0 0.3247 0.0658 0.4419 0.1831 0.1173 0.1172 0.1831 0.2761 0.1831 0.4419v1.25c0 0.1658-0.0658 0.3247-0.1831 0.4419-0.1172 0.1173-0.2761 0.1831-0.4419 0.1831h-8.75c-0.1658 0-0.3247-0.0658-0.4419-0.1831C8.8159 13.4497 8.75 13.2908 8.75 13.125zM8.75 5.625c0-0.1658 0.0658-0.3247 0.1831-0.4419C9.0503 5.0659 9.2092 5 9.375 5h6.25c0.1658 0 0.3247 0.0659 0.4419 0.1831C16.1842 5.3003 16.25 5.4592 16.25 5.625s-0.0658 0.3247-0.1831 0.4419C15.9497 6.1842 15.7908 6.25 15.625 6.25h-6.25c-0.1658 0-0.3247-0.0659-0.4419-0.1831C8.8159 5.9497 8.75 5.7908 8.75 5.625zM8.75 15.625c0-0.1658 0.0658-0.3247 0.1831-0.4419C9.0503 15.0658 9.2092 15 9.375 15h6.25c0.1658 0 0.3247 0.0658 0.4419 0.1831 0.1173 0.1172 0.1831 0.2761 0.1831 0.4419s-0.0658 0.3247-0.1831 0.4419c-0.1172 0.1173-0.2761 0.1831-0.4419 0.1831h-6.25c-0.1658 0-0.3247-0.0658-0.4419-0.1831C8.8159 15.9497 8.75 15.7908 8.75 15.625zM3.75 0C3.2575 0 2.7699 0.097 2.3149 0.2855 1.86 0.4739 1.4466 0.7501 1.0984 1.0984 0.7501 1.4466 0.4739 1.86 0.2855 2.3149 0.097 2.7699 0 3.2575 0 3.75s0.097 0.9801 0.2855 1.4351C0.4739 5.64 0.7501 6.0534 1.0984 6.4017 1.4466 6.7499 1.86 7.0261 2.3149 7.2146 2.7699 7.403 3.2575 7.5 3.75 7.5c0.9946 0 1.9484-0.3951 2.6517-1.0983C7.1049 5.6984 7.5 4.7446 7.5 3.75S7.1049 1.8016 6.4017 1.0984C5.6984 0.3951 4.7446 0 3.75 0zM3.75 5.625c-0.4973 0-0.9742-0.1975-1.3258-0.5492C2.0725 4.7242 1.875 4.2473 1.875 3.75s0.1975-0.9742 0.5492-1.3258C2.7758 2.0725 3.2527 1.875 3.75 1.875s0.9742 0.1975 1.3258 0.5492C5.4275 2.7758 5.625 3.2527 5.625 3.75S5.4275 4.7242 5.0758 5.0758C4.7242 5.4275 4.2473 5.625 3.75 5.625z" />
        </symbol>
        <symbol id="solar_fridge-outline" viewBox="0 0 32 32" fill="var(--color2, #101828)">
            <path d="M23.6667 9.3333c0-0.2652-0.1054-0.5196-0.2929-0.7071-0.1876-0.1875-0.4419-0.2929-0.7071-0.2929-0.2653 0-0.5196 0.1054-0.7071 0.2929-0.1876 0.1875-0.2929 0.4419-0.2929 0.7071V12c0 0.2652 0.1053 0.5195 0.2929 0.7071C22.1471 12.8946 22.4014 13 22.6667 13c0.2652 0 0.5195-0.1054 0.7071-0.2929 0.1875-0.1876 0.2929-0.4419 0.2929-0.7071zM23.6667 18.6666c0-0.2652-0.1054-0.5195-0.2929-0.7071-0.1876-0.1875-0.4419-0.2929-0.7071-0.2929-0.2653 0-0.5196 0.1054-0.7071 0.2929-0.1876 0.1876-0.2929 0.4419-0.2929 0.7071v2.6667c0 0.2652 0.1053 0.5196 0.2929 0.7071 0.1875 0.1876 0.4418 0.2929 0.7071 0.2929 0.2652 0 0.5195-0.1053 0.7071-0.2929 0.1875-0.1875 0.2929-0.4419 0.2929-0.7071z" />
            <path clip-rule="evenodd" d="M16.0747 1.6667l-0.1494 0c-2.4506 0-4.392 0-5.9106 0.204C8.452 2.0814 7.1867 2.524 6.188 3.5214 5.1907 4.52 4.748 5.7854 4.5373 7.348c-0.204 1.52-0.204 3.46-0.204 5.9107l0 4.1493c0 2.4507 0 4.392 0.204 5.9107 0.2107 1.5627 0.6534 2.828 1.6507 3.8267 0.6133 0.612 1.3253 1.0146 2.1453 1.284l0 0.904c0 0.552 0.448 1 1 1h1.3334c0.2652 0 0.5195-0.1054 0.7071-0.2929 0.1875-0.1876 0.2929-0.4419 0.2929-0.7071v-0.3947C12.876 29 14.2867 29 15.9253 29h0.1494c1.64 0 3.0493 0 4.2586-0.0613v0.3947c0 0.552 0.448 1 1 1h1.3334c0.2652 0 0.5195-0.1054 0.7071-0.2929 0.1875-0.1876 0.2929-0.4419 0.2929-0.7071v-0.904c0.82-0.2694 1.5333-0.672 2.1453-1.284 0.9973-0.9987 1.44-2.264 1.6507-3.8267 0.204-1.52 0.204-3.46 0.204-5.9107V13.26c0-2.4506 0-4.392-0.204-5.9106-0.2107-1.5627-0.6534-2.828-1.6507-3.8267-0.9987-0.9973-2.264-1.44-3.8267-1.6507-1.52-0.204-3.46-0.204-5.9106-0.204M7.6027 4.936c0.564-0.564 1.3373-0.9026 2.6786-1.0827C11.652 3.6694 13.4573 3.6667 16 3.6667c2.5427 0 4.3493 27e-4 5.72 0.1866 1.34 0.1801 2.1133 0.5187 2.6773 1.0827C24.9613 5.5 25.3 6.2734 25.48 7.6147c0.184 1.3707 0.1867 3.176 0.1867 5.7187v1H6.3333l0-1c0-2.5427 27e-4-4.3481 0.1867-5.7201C6.7 6.2734 7.0387 5.5 7.6027 4.936zM6.3333 16.3334h19.3334v1c0 2.5426-27e-4 4.3493-0.1867 5.72-0.18 1.34-0.5187 2.1133-1.0827 2.6773s-1.3373 0.9027-2.6786 1.0827C20.348 26.9974 18.5427 27 16 27s-4.348-26e-4-5.72-0.1866c-1.34-0.18-2.1133-0.5187-2.6773-1.0827C7.0387 25.1667 6.7 24.3934 6.52 23.052c-0.184-1.3693-0.1867-3.176-0.1867-5.7186z" fill-rule="evenodd" />
        </symbol>
        <symbol id="fuel" viewBox="0 0 20 20" fill="var(--color2, #101828)">
            <path d="M3.75 3.125c0-0.1658 0.0659-0.3247 0.1831-0.4419C4.0503 2.5659 4.2092 2.5 4.375 2.5h6.25c0.1658 0 0.3247 0.0659 0.4419 0.1831C11.1842 2.8003 11.25 2.9592 11.25 3.125v6.25c0 0.1658-0.0658 0.3247-0.1831 0.4419C10.9497 9.9342 10.7908 10 10.625 10h-6.25c-0.1658 0-0.3247-0.0658-0.4419-0.1831C3.8159 9.6997 3.75 9.5408 3.75 9.375z" />
            <path d="M1.25 2.5c0-0.663 0.2634-1.2989 0.7322-1.7678C2.4511 0.2634 3.087 0 3.75 0h7.5c0.663 0 1.2989 0.2634 1.7678 0.7322C13.4866 1.2011 13.75 1.837 13.75 2.5v10c0.663 0 1.2989 0.2634 1.7678 0.7322C15.9866 13.7011 16.25 14.337 16.25 15v0.625c0 0.1658 0.0658 0.3247 0.1831 0.4419 0.1172 0.1173 0.2761 0.1831 0.4419 0.1831s0.3247-0.0658 0.4419-0.1831C17.4342 15.9497 17.5 15.7908 17.5 15.625V10h-0.625c-0.1658 0-0.3247-0.0658-0.4419-0.1831C16.3158 9.6997 16.25 9.5408 16.25 9.375V5.4688c0-0.1658 0.0658-0.3248 0.1831-0.442 0.1172-0.1172 0.2761-0.183 0.4419-0.183l1.8687 0c-0.0137-0.595-0.0662-1.1175-0.2512-1.5275-0.099-0.2384-0.2716-0.439-0.4925-0.5726C17.77 2.6063 17.42 2.5 16.875 2.5c-0.1658 0-0.3247-0.0659-0.4419-0.1831C16.3158 2.1997 16.25 2.0408 16.25 1.875s0.0658-0.3247 0.1831-0.4419C16.5503 1.3159 16.7092 1.25 16.875 1.25c0.705-17e-4 1.2933 0.1383 1.765 0.42 0.4787 0.285 0.7925 0.6888 0.9925 1.1338C20.0013 3.6225 20 4.635 20 5.405v3.9687c2e-4 0.0822-0.0159 0.1636-0.0472 0.2396-0.0314 0.076-0.0774 0.145-0.1354 0.2032-0.0581 0.0582-0.127 0.1043-0.2029 0.1358C19.5386 9.9838 19.4572 10 19.375 10H18.75v5.625c0 0.4973-0.1975 0.9742-0.5492 1.3258C17.8492 17.3025 17.3723 17.5 16.875 17.5s-0.9742-0.1975-1.3258-0.5492C15.1975 16.5992 15 16.1223 15 15.625V15c0-0.3315-0.1317-0.6495-0.3661-0.8839S14.0815 13.75 13.75 13.75v5h0.625c0.1658 0 0.3247 0.0658 0.4419 0.1831C14.9342 19.0503 15 19.2092 15 19.375s-0.0658 0.3247-0.1831 0.4419C14.6997 19.9342 14.5408 20 14.375 20H0.625c-0.1658 0-0.3247-0.0658-0.4419-0.1831C0.0658 19.6997 0 19.5408 0 19.375s0.0658-0.3247 0.1831-0.4419C0.3003 18.8158 0.4592 18.75 0.625 18.75H1.25zM12.5 2.5c0-0.3315-0.1317-0.6495-0.3661-0.8839C11.8995 1.3817 11.5815 1.25 11.25 1.25h-7.5c-0.3315 0-0.6495 0.1317-0.8839 0.3661C2.6317 1.8505 2.5 2.1685 2.5 2.5v16.25h10z" />
        </symbol>
        <symbol id="ion_water-outline" viewBox="0 0 32 32" stroke-width="2" stroke="var(--color2, #101828)" fill="none">
            <path d="M25 20c0 5.5231-3.4769 9-9 9s-9-3.4769-9-9c0-5.9269 6.4519-13.9281 8.4306-16.2425 0.0704-0.0822 0.1578-0.1483 0.2561-0.1935 0.0984-0.0453 0.2054-0.0687 0.3136-0.0687 0.1083 0 0.2152 0.0234 0.3136 0.0687 0.0983 0.0452 0.1857 0.1113 0.2561 0.1935C18.5481 6.0719 25 14.0731 25 20z" stroke-miterlimit="10" />
            <path stroke-linecap="round" stroke-linejoin="round" d="M21.5 20.5c0 1.1935-0.4741 2.3381-1.318 3.182S18.1935 25 17 25" />
        </symbol>
    </defs>
</svg>